<?xml version="1.0" standalone="no"?>
<!DOCTYPE svg PUBLIC "-//W3C//DTD SVG 20010904//EN"
 "http://www.w3.org/TR/2001/REC-SVG-20010904/DTD/svg10.dtd">
<svg version="1.0" xmlns="http://www.w3.org/2000/svg"
 width="1221.000000pt" height="705.000000pt" viewBox="0 0 1221.000000 705.000000"
 preserveAspectRatio="xMidYMid meet">
<g transform="translate(0.000000,705.000000) scale(0.100000,-0.100000)"
fill="#000000" stroke="none">
<path d="M3591 5976 c-6 -7 -33 -19 -59 -27 -26 -7 -67 -23 -91 -36 -24 -13
-50 -23 -58 -23 -8 0 -29 -11 -47 -25 -18 -14 -42 -25 -53 -25 -11 0 -39 -13
-61 -30 -23 -16 -48 -30 -56 -30 -8 0 -38 -18 -67 -40 -30 -22 -58 -40 -64
-40 -5 0 -37 -18 -70 -40 -33 -22 -64 -40 -69 -40 -4 0 -25 -14 -46 -30 -21
-17 -53 -37 -72 -44 -18 -8 -42 -24 -52 -35 -11 -12 -26 -21 -34 -21 -8 0 -39
-18 -67 -39 -29 -22 -68 -46 -86 -54 -19 -8 -43 -24 -53 -36 -11 -11 -27 -21
-36 -21 -9 0 -37 -20 -62 -44 -26 -24 -55 -47 -65 -50 -11 -3 -35 -22 -54 -41
-18 -19 -50 -45 -69 -57 -40 -26 -218 -168 -303 -242 -100 -88 -322 -309 -352
-351 -15 -22 -39 -51 -52 -65 -32 -33 -113 -141 -113 -151 0 -4 -20 -31 -44
-59 -24 -29 -47 -63 -50 -76 -4 -13 -20 -44 -36 -69 -17 -25 -44 -65 -60 -90
-17 -25 -30 -50 -30 -56 0 -5 -14 -37 -31 -71 -36 -72 -31 -100 25 -123 30
-13 40 -13 74 -1 28 10 99 14 269 14 127 0 235 2 239 5 8 4 273 -17 299 -24 6
-1 31 1 56 5 26 4 78 3 120 -3 41 -6 119 -13 175 -15 55 -2 109 -8 120 -13 10
-6 37 -13 59 -17 180 -31 344 -134 428 -270 23 -38 63 -101 90 -141 26 -40 47
-77 47 -82 0 -6 9 -20 20 -33 11 -13 20 -31 20 -41 0 -15 71 -167 141 -300 10
-20 19 -43 19 -50 0 -8 18 -38 40 -67 22 -29 40 -57 40 -62 0 -21 69 -110 137
-175 107 -102 178 -155 211 -155 15 0 37 -7 49 -15 41 -29 237 -87 323 -96
335 -33 704 -12 945 56 60 17 241 55 310 65 28 3 73 14 100 22 28 9 86 25 130
36 128 32 292 85 463 149 52 20 143 53 203 73 60 21 125 48 145 59 19 12 43
21 52 21 10 0 27 7 38 15 12 8 70 35 130 60 60 26 118 52 129 59 11 7 58 30
105 50 116 52 210 95 240 111 14 7 72 38 130 67 58 30 125 66 150 80 25 14 86
47 135 73 50 26 97 53 105 60 8 7 31 20 50 29 19 9 64 34 100 56 36 22 81 46
100 55 19 8 42 20 50 25 8 5 42 23 75 41 33 17 67 37 75 44 8 7 26 16 40 20
14 4 46 20 73 36 26 16 51 29 55 29 7 0 119 56 207 104 17 9 46 23 65 31 19 8
42 19 50 24 17 10 104 51 220 101 67 30 84 33 166 33 72 -1 100 -5 132 -22 23
-12 49 -21 59 -21 10 0 40 -18 67 -40 26 -22 53 -40 58 -40 13 0 122 -78 162
-115 42 -40 159 -172 171 -194 6 -10 20 -31 33 -47 82 -105 213 -350 239 -449
35 -129 43 -180 49 -310 8 -165 -10 -428 -32 -462 -8 -12 -14 -31 -14 -41 0
-10 -13 -45 -29 -78 -16 -32 -43 -90 -60 -129 -18 -38 -36 -77 -41 -85 -70
-115 -95 -153 -109 -163 -10 -7 -31 -32 -48 -57 -32 -47 -175 -192 -196 -199
-7 -2 -34 -24 -62 -48 -27 -23 -54 -43 -60 -43 -5 0 -31 -15 -58 -34 -26 -18
-62 -40 -80 -47 -17 -7 -45 -23 -60 -36 -16 -13 -39 -23 -51 -23 -13 0 -35 -9
-49 -20 -14 -11 -35 -20 -47 -20 -11 0 -35 -8 -53 -17 -65 -34 -489 -64 -567
-40 -19 6 -51 12 -70 12 -68 4 -145 18 -165 31 -11 8 -28 14 -38 14 -10 0 -31
6 -45 14 -15 8 -56 29 -92 46 -36 17 -84 43 -107 58 -23 15 -63 40 -90 56 -59
36 -206 147 -293 222 -100 85 -170 128 -170 104 0 -13 66 -100 131 -174 20
-23 49 -61 64 -86 31 -50 262 -280 281 -280 7 0 25 -11 41 -24 30 -25 148 -99
198 -124 17 -8 42 -23 57 -34 14 -10 35 -18 47 -18 11 0 41 -11 67 -25 26 -14
57 -25 68 -25 12 0 30 -6 41 -14 11 -7 40 -16 64 -20 24 -4 56 -13 72 -21 15
-8 40 -15 54 -15 14 0 40 -8 58 -17 47 -25 383 -25 441 0 21 9 49 17 62 17 78
0 379 96 424 135 8 7 34 18 57 24 23 7 45 16 48 21 3 5 29 21 58 35 29 15 61
34 72 44 11 10 38 28 60 42 74 44 182 138 274 239 50 55 91 105 91 111 0 7 20
36 45 65 25 28 45 58 45 66 0 8 11 29 25 48 14 19 25 39 25 46 0 6 16 38 35
70 19 32 35 68 35 80 0 12 7 38 15 57 8 20 15 51 15 69 0 18 7 42 15 52 8 11
15 31 15 45 0 14 7 48 15 76 28 90 36 178 36 354 -1 137 -4 180 -16 198 -8 12
-15 39 -15 60 0 21 -7 47 -15 57 -8 11 -15 33 -15 48 0 16 -11 51 -25 78 -14
27 -25 56 -25 65 0 9 -9 33 -20 55 -11 22 -20 48 -20 58 0 11 -13 36 -30 57
-16 21 -30 44 -30 52 0 14 -86 163 -100 173 -4 3 -25 30 -46 61 -50 73 -93
120 -179 195 -126 112 -239 196 -295 221 -277 124 -309 145 -276 182 8 9 50
25 93 35 43 10 96 24 118 32 23 8 52 14 65 14 14 0 41 9 61 19 20 11 63 25 95
31 265 53 393 68 581 69 124 1 134 2 154 24 47 48 73 162 44 190 -20 21 -45
22 -71 2 -10 -8 -36 -15 -57 -15 -21 0 -54 -8 -75 -19 -20 -10 -53 -22 -72
-26 -19 -4 -41 -12 -48 -18 -13 -10 -50 -18 -172 -36 -30 -4 -89 -20 -130 -35
-41 -15 -94 -31 -118 -36 -23 -5 -51 -14 -61 -20 -11 -5 -32 -10 -48 -10 -15
0 -46 -8 -68 -19 -22 -10 -56 -24 -75 -31 -19 -6 -64 -23 -100 -37 -36 -13
-87 -30 -114 -38 -26 -8 -55 -20 -65 -29 -9 -8 -27 -12 -41 -9 -14 2 -49 -5
-78 -16 -29 -12 -63 -21 -75 -21 -12 0 -37 -9 -55 -20 -18 -11 -41 -20 -52
-20 -10 0 -40 -11 -66 -25 -26 -14 -54 -25 -63 -25 -9 0 -26 -6 -37 -14 -11
-8 -47 -24 -80 -35 -85 -29 -167 -64 -197 -84 -15 -9 -32 -17 -40 -17 -14 0
-92 -35 -162 -72 -56 -30 -81 -42 -150 -73 -58 -25 -96 -44 -160 -78 -16 -8
-64 -32 -105 -51 -71 -34 -143 -70 -200 -102 -14 -7 -43 -22 -65 -33 -22 -10
-55 -31 -74 -45 -19 -14 -40 -26 -46 -26 -6 0 -33 -14 -59 -31 -52 -35 -99
-61 -192 -107 -33 -17 -66 -38 -73 -46 -8 -9 -19 -16 -25 -16 -6 0 -24 -7 -41
-16 -110 -60 -342 -174 -355 -174 -8 0 -30 -9 -48 -20 -18 -11 -38 -20 -46
-20 -7 0 -34 -11 -60 -25 -26 -14 -53 -25 -59 -25 -7 0 -31 -9 -52 -21 -22
-12 -53 -23 -69 -25 -16 -2 -39 -10 -50 -17 -26 -17 -138 -53 -191 -62 -21 -4
-52 -13 -67 -21 -15 -8 -42 -14 -61 -14 -18 0 -42 -7 -53 -15 -10 -8 -36 -15
-57 -15 -21 0 -57 -4 -80 -9 -138 -30 -428 -62 -552 -61 -96 0 -282 28 -340
50 -15 6 -41 10 -58 10 -18 1 -43 7 -57 15 -14 8 -39 14 -56 15 -70 0 -253
112 -295 179 -9 14 -33 42 -53 60 -25 25 -36 44 -36 64 0 16 -9 40 -20 54 -11
14 -20 40 -20 57 0 17 -7 40 -15 50 -8 11 -15 37 -15 58 0 20 -9 52 -20 70
-11 18 -20 49 -20 69 0 21 -8 47 -20 62 -11 14 -20 33 -20 42 0 9 -9 28 -19
41 -11 14 -27 49 -37 77 -9 29 -26 66 -38 82 -11 17 -28 42 -36 56 -60 105
-216 271 -295 313 -28 15 -65 38 -84 51 -19 14 -43 25 -54 25 -10 0 -32 11
-49 25 -16 14 -38 25 -48 25 -10 0 -42 12 -70 26 -28 14 -96 34 -149 43 -54
10 -103 21 -108 24 -18 11 -279 28 -493 33 -254 5 -295 11 -343 49 -44 35 -53
57 -39 93 6 15 13 60 16 101 5 59 12 83 38 122 17 26 36 50 43 53 7 2 16 18
20 35 4 17 12 37 19 44 20 21 60 80 81 119 78 150 555 649 819 857 114 90 206
174 206 189 0 16 -25 15 -39 -2z"/>
<path d="M10125 5484 c-38 -8 -110 -19 -160 -24 -49 -6 -110 -17 -134 -25 -25
-8 -58 -15 -75 -15 -17 0 -44 -9 -61 -20 -16 -11 -45 -20 -63 -20 -17 0 -49
-9 -69 -20 -21 -11 -46 -20 -56 -20 -10 0 -35 -8 -55 -18 -20 -11 -61 -31 -90
-45 -28 -15 -58 -27 -65 -27 -6 0 -61 -25 -122 -55 -60 -30 -113 -55 -118 -55
-5 0 -39 -18 -76 -40 -37 -22 -73 -40 -80 -40 -7 0 -27 -11 -45 -25 -18 -14
-40 -25 -50 -25 -9 0 -35 -12 -57 -26 -23 -14 -60 -34 -83 -45 -22 -11 -52
-26 -66 -34 -14 -7 -69 -35 -122 -60 -54 -26 -102 -53 -108 -60 -6 -8 -24 -17
-40 -20 -16 -3 -47 -20 -69 -36 -23 -16 -45 -29 -51 -29 -6 0 -33 -15 -60 -34
-28 -19 -63 -37 -80 -41 -16 -4 -32 -11 -35 -15 -3 -5 -54 -32 -113 -60 -59
-28 -114 -55 -122 -60 -8 -6 -44 -26 -80 -45 -36 -19 -76 -41 -90 -48 -14 -7
-41 -22 -60 -32 -96 -49 -164 -86 -174 -94 -6 -5 -22 -12 -34 -16 -13 -4 -43
-20 -67 -36 -24 -16 -51 -29 -62 -29 -10 0 -34 -8 -53 -18 -51 -28 -129 -37
-275 -34 -97 2 -136 7 -154 19 -15 9 -36 13 -56 10 -28 -5 -38 0 -65 28 -19
19 -53 44 -77 55 -24 11 -73 49 -108 85 -36 36 -69 65 -73 65 -4 0 -45 42 -92
94 -131 144 -346 363 -435 442 -153 137 -200 177 -235 199 -19 12 -52 37 -74
54 -21 17 -47 31 -58 31 -10 0 -21 7 -25 16 -6 16 -142 84 -209 104 -21 6 -66
15 -99 20 -123 19 -161 27 -185 40 -34 18 -381 26 -413 8 -19 -11 -94 -24
-182 -31 -16 -2 -44 -11 -62 -20 -18 -9 -50 -17 -71 -17 -24 0 -49 -8 -65 -20
-14 -11 -34 -20 -45 -20 -10 0 -36 -11 -56 -25 -20 -14 -45 -25 -55 -25 -19 0
-167 -74 -192 -96 -8 -7 -31 -19 -50 -25 -19 -7 -41 -17 -49 -24 -8 -7 -60
-42 -115 -78 -55 -36 -119 -80 -143 -96 -23 -17 -49 -31 -58 -31 -9 0 -31 -15
-50 -34 -34 -34 -44 -69 -22 -82 6 -4 103 -7 214 -7 111 1 220 -3 241 -9 21
-5 61 -13 88 -18 86 -13 151 -28 186 -43 86 -37 171 -67 188 -67 10 0 35 -13
56 -30 21 -16 44 -30 52 -30 9 0 32 -13 52 -29 21 -17 50 -36 67 -43 39 -17
244 -227 269 -275 10 -21 32 -57 47 -80 15 -23 28 -46 28 -52 0 -6 13 -23 30
-37 21 -19 29 -35 29 -58 -1 -17 6 -48 15 -68 9 -21 16 -48 16 -61 0 -22 16
-60 78 -186 33 -67 165 -246 187 -255 9 -3 26 -6 37 -6 11 0 33 -9 48 -20 16
-11 43 -23 62 -26 18 -4 48 -16 67 -27 30 -18 50 -20 210 -20 128 1 196 6 251
18 41 9 95 20 120 24 25 4 59 15 77 24 18 9 42 17 55 17 13 0 38 9 56 20 18
11 40 20 50 20 9 0 34 9 55 20 20 11 42 20 47 20 10 0 163 69 205 92 31 18
250 130 313 161 31 16 64 32 72 37 8 6 58 30 110 55 52 25 104 51 115 57 11 7
92 47 180 90 88 44 167 84 175 89 8 5 23 12 34 16 17 5 39 17 131 65 67 36
252 129 655 329 234 116 450 224 480 240 102 54 305 152 344 165 22 8 45 19
51 24 7 5 60 34 118 63 58 30 112 58 119 64 7 6 24 14 38 18 27 8 156 66 205
92 17 9 46 19 65 23 19 5 49 13 65 18 17 6 57 16 90 22 33 6 78 15 100 21 74
19 338 31 575 25 196 -4 245 -9 295 -25 33 -11 85 -22 115 -25 30 -2 69 -12
85 -20 17 -9 45 -16 63 -16 18 0 45 -6 60 -14 36 -18 153 -29 172 -15 13 8 11
12 -10 27 -13 9 -49 37 -80 62 -30 25 -68 54 -85 65 -44 28 -144 75 -162 75
-8 0 -26 9 -40 20 -14 11 -38 20 -52 20 -15 0 -51 9 -81 19 -30 11 -89 23
-130 27 -41 4 -92 13 -114 20 -52 19 -365 17 -461 -2z"/>
<path d="M1825 3479 c-33 -10 -76 -19 -95 -19 -19 0 -48 -9 -65 -20 -16 -11
-43 -20 -59 -20 -16 0 -48 -11 -70 -24 -23 -13 -53 -26 -68 -30 -15 -3 -43
-20 -62 -36 -18 -17 -40 -30 -48 -30 -32 0 -285 -198 -356 -279 -91 -104 -222
-315 -222 -359 0 -9 -11 -39 -25 -67 -13 -27 -25 -63 -25 -78 0 -15 -8 -42
-17 -60 -20 -37 -42 -195 -43 -312 -3 -177 35 -432 77 -525 9 -19 24 -53 33
-75 55 -125 101 -211 150 -278 46 -63 188 -207 204 -207 6 0 28 -16 47 -36 18
-20 50 -44 69 -54 19 -10 43 -27 53 -38 10 -11 33 -26 50 -33 18 -7 52 -28 76
-46 24 -18 54 -33 66 -33 11 0 30 -7 41 -15 10 -8 34 -15 52 -15 18 0 54 -11
80 -25 26 -14 59 -25 73 -25 15 0 46 -8 70 -17 63 -25 423 -24 488 0 24 9 58
17 75 17 17 0 45 9 61 20 17 11 45 20 64 20 18 0 48 8 65 19 17 10 47 21 67
25 20 4 45 16 55 27 11 12 36 30 56 40 21 11 52 32 70 48 18 15 47 35 63 44
25 13 160 132 291 257 60 57 110 39 230 -85 50 -51 106 -101 125 -109 19 -9
52 -27 74 -41 22 -14 50 -25 61 -25 12 0 33 -9 47 -20 14 -11 39 -20 57 -20
17 0 45 -8 63 -17 48 -26 455 -26 539 0 31 9 68 17 83 17 31 0 108 23 173 51
23 11 54 19 68 19 13 0 36 7 50 16 14 9 42 20 62 25 54 11 164 52 192 72 13 9
36 17 50 17 14 0 43 12 65 25 22 14 50 25 62 25 12 0 29 7 37 15 8 9 39 27 68
41 78 38 152 79 185 101 15 11 45 26 65 32 21 7 40 17 44 22 3 5 31 23 62 40
80 42 109 59 175 102 32 20 62 37 67 37 4 0 32 18 61 40 30 22 59 40 66 40 7
0 26 12 42 28 16 15 71 59 122 97 50 39 106 84 124 101 17 18 45 39 61 47 38
20 174 148 174 165 0 17 -6 15 -55 -18 -24 -16 -52 -30 -63 -30 -10 0 -31 -13
-45 -30 -14 -16 -43 -34 -64 -39 -21 -6 -56 -26 -77 -46 -22 -19 -46 -35 -54
-35 -8 0 -41 -18 -74 -40 -33 -22 -68 -40 -78 -40 -9 0 -25 -9 -35 -20 -10
-11 -28 -20 -40 -20 -12 0 -33 -8 -46 -18 -32 -25 -106 -62 -123 -62 -7 0 -25
-9 -39 -20 -14 -11 -35 -20 -47 -20 -11 0 -38 -9 -58 -20 -75 -39 -188 -90
-200 -90 -7 0 -27 -8 -45 -17 -18 -9 -48 -20 -67 -24 -19 -4 -73 -19 -120 -34
-125 -39 -148 -45 -225 -56 -38 -5 -99 -14 -135 -21 -84 -15 -349 -15 -420 1
-30 7 -73 14 -95 17 -38 5 -113 30 -180 59 -16 8 -50 22 -75 33 -64 27 -242
154 -302 215 -65 67 -160 191 -185 242 -10 22 -24 49 -30 60 -29 51 -63 136
-63 158 0 13 -16 45 -35 70 -19 25 -35 54 -35 64 0 21 -17 50 -24 42 -3 -2 -9
-63 -15 -134 -10 -132 -40 -277 -73 -351 -10 -22 -18 -45 -18 -50 0 -6 -15
-28 -34 -50 -19 -22 -41 -57 -49 -77 -9 -20 -20 -37 -26 -37 -5 0 -27 -24 -48
-52 -46 -64 -176 -194 -201 -202 -9 -3 -37 -26 -61 -51 -24 -25 -49 -45 -56
-45 -6 0 -31 -14 -53 -30 -23 -17 -49 -30 -59 -30 -9 0 -39 -13 -67 -28 -76
-43 -164 -54 -431 -55 -244 -2 -301 10 -467 94 -43 21 -84 39 -92 39 -8 0 -21
8 -28 18 -7 10 -31 29 -53 42 -94 56 -302 267 -345 350 -79 152 -109 216 -114
245 -4 19 -15 53 -26 77 -10 24 -23 85 -27 137 -10 106 2 344 19 379 6 12 12
37 13 55 5 69 25 137 61 198 132 229 206 307 453 481 53 36 115 80 137 97 23
16 57 33 77 36 20 4 41 13 48 21 6 8 24 14 38 14 33 0 67 23 57 38 -10 17 -51
13 -121 -9z"/>
<path d="M8566 2724 c-66 -22 -88 -35 -136 -82 -36 -35 -61 -69 -65 -87 -3
-16 -12 -43 -20 -58 -49 -94 25 -282 136 -353 98 -61 252 -60 338 3 46 34 139
156 147 193 3 14 9 41 14 61 15 54 13 61 -27 130 -31 55 -148 174 -196 200
-38 21 -115 18 -191 -7z"/>
<path d="M2081 2560 c-30 -11 -64 -29 -76 -40 -12 -11 -26 -20 -32 -20 -17 0
-83 -81 -83 -100 0 -10 -9 -29 -20 -42 -42 -55 -48 -170 -11 -213 10 -11 29
-40 44 -65 38 -68 133 -138 212 -157 58 -15 66 -15 98 1 19 9 45 16 58 16 34
0 174 147 208 219 27 58 27 62 15 121 -10 48 -23 76 -61 123 -125 159 -225
204 -352 157z"/>
</g>
</svg>
