<?xml version="1.0" standalone="no"?>
<!DOCTYPE svg PUBLIC "-//W3C//DTD SVG 20010904//EN"
 "http://www.w3.org/TR/2001/REC-SVG-20010904/DTD/svg10.dtd">
<svg version="1.0" xmlns="http://www.w3.org/2000/svg"
 width="600.000000pt" height="372.000000pt" viewBox="0 0 600.000000 372.000000"
 preserveAspectRatio="xMidYMid meet">
<g transform="translate(0.000000,372.000000) scale(0.100000,-0.100000)"
fill="#000000" stroke="none">
<path d="M2295 3499 c-259 -4 -489 -11 -513 -14 -30 -4 -53 -16 -75 -39 -32
-32 -176 -314 -273 -533 -38 -86 -52 -111 -64 -106 -29 12 -177 15 -199 4 -18
-10 -20 -17 -15 -54 14 -85 28 -111 67 -122 l37 -10 -20 -40 c-19 -37 -33 -46
-188 -122 -355 -174 -582 -369 -627 -539 -40 -153 -27 -387 35 -603 31 -108
48 -144 84 -173 21 -17 21 -18 0 -18 -11 0 -44 -12 -72 -26 -81 -40 -123 -126
-101 -207 13 -49 74 -112 117 -122 29 -6 29 -7 31 -78 5 -208 51 -412 112
-497 52 -72 90 -82 293 -78 l174 3 39 30 c79 64 115 183 128 435 l7 135 207
-12 c113 -6 295 -15 403 -19 l197 -7 3 -31 c2 -26 9 -33 38 -42 21 -7 178 -15
405 -20 444 -9 342 -9 755 0 468 10 460 9 460 66 l0 27 203 7 c111 4 295 13
408 19 l206 12 6 -155 c10 -246 47 -363 131 -419 38 -25 45 -26 213 -29 160
-3 177 -2 217 18 25 11 56 38 71 59 55 81 97 256 111 465 l7 101 48 23 c151
72 120 283 -48 333 l-42 12 29 33 c46 53 103 260 120 437 13 134 -2 292 -34
363 -52 113 -177 240 -341 346 -89 58 -271 157 -355 193 -67 30 -89 46 -109
82 -17 32 -14 38 22 48 38 12 54 41 63 118 l7 56 -36 6 c-40 8 -155 2 -178 -8
-13 -6 -26 15 -69 110 -97 217 -234 487 -263 520 -15 17 -42 36 -60 42 -26 8
-1226 36 -1287 29 -8 -1 -226 -5 -485 -9z m-488 -45 c-3 -3 -12 -4 -19 -1 -8
3 -5 6 6 6 11 1 17 -2 13 -5z m-37 -8 c0 -3 -4 -8 -10 -11 -5 -3 -10 -1 -10 4
0 6 5 11 10 11 6 0 10 -2 10 -4z m2192 -16 c153 -17 142 -6 267 -262 151 -311
254 -538 248 -544 -3 -3 -19 -3 -36 1 -24 5 -31 12 -31 31 0 66 -249 604 -314
680 -49 57 -96 64 -436 74 -381 11 -1124 11 -1500 0 -324 -9 -382 -19 -429
-69 -29 -31 -141 -253 -231 -457 -61 -136 -90 -221 -83 -240 2 -6 -6 -14 -19
-18 -35 -9 -48 -7 -48 7 0 26 314 687 350 737 34 48 102 62 355 70 302 11
1799 3 1907 -10z m-1062 -95 l0 -65 -52 -1 c-106 -1 -124 -11 -139 -79 -16
-69 -13 -70 200 -70 132 0 191 4 199 12 15 15 15 46 1 86 -12 36 -52 52 -131
52 l-48 0 0 66 0 67 173 -6 c143 -5 217 -13 437 -52 297 -52 442 -62 448 -33
2 11 -6 22 -22 29 -31 14 -34 29 -7 29 34 0 80 -50 115 -123 56 -117 231 -585
222 -594 -2 -2 -30 0 -62 6 -49 9 -314 41 -336 41 -3 0 -9 35 -13 78 -9 107
-24 178 -40 192 -10 8 -30 3 -84 -24 -64 -33 -78 -36 -154 -36 -77 0 -90 3
-151 35 -37 19 -74 35 -82 35 -19 0 -40 -51 -56 -132 l-12 -63 -393 0 -393 0
-10 55 c-15 76 -39 140 -54 140 -6 0 -44 -16 -85 -35 -64 -31 -82 -35 -152
-35 -71 0 -87 4 -150 35 -38 20 -75 33 -80 29 -23 -14 -40 -80 -46 -174 l-6
-98 -61 -7 c-85 -9 -262 -32 -314 -41 l-43 -7 12 29 c6 16 37 101 69 189 137
373 186 474 238 493 56 21 61 22 55 6 -3 -7 -11 -14 -18 -14 -8 0 -21 -7 -30
-16 -13 -13 -13 -19 -3 -31 18 -23 143 -12 423 37 319 56 332 57 493 59 l142
1 0 -65z m-643 42 c3 -4 2 -7 -3 -8 -18 -1 -88 -13 -143 -24 -9 -1 -45 -6 -81
-10 -36 -3 -78 -8 -95 -9 -39 -5 -49 2 -30 20 8 9 13 19 11 23 -3 4 7 6 22 4
15 -2 77 0 137 4 127 9 172 9 182 0z m1538 -2 c84 -5 112 -11 121 -23 28 -39
-5 -41 -172 -11 -125 23 -151 27 -171 28 -7 1 -13 5 -13 9 0 9 53 8 235 -3z
m294 -79 c-3 -3 -11 5 -18 17 -13 21 -12 21 5 5 10 -10 16 -20 13 -22z m-2367
-39 c-12 -13 -19 -26 -16 -30 4 -3 0 -17 -8 -29 -8 -13 -20 -42 -26 -65 -7
-24 -18 -43 -23 -43 -6 0 -8 7 -5 16 3 9 2 12 -4 9 -13 -8 26 63 47 87 8 9 12
21 9 26 -5 9 29 52 41 52 4 0 -3 -10 -15 -23z m2395 7 c-6 -6 33 -84 55 -111
6 -7 8 -13 5 -13 -3 0 14 -36 38 -81 24 -44 49 -97 56 -117 6 -20 14 -41 18
-47 3 -5 6 -12 7 -15 3 -16 19 -47 30 -61 8 -8 15 -24 17 -35 2 -10 7 -28 11
-39 14 -37 24 -70 30 -96 5 -23 3 -25 -33 -27 -28 -2 -38 1 -38 13 0 8 4 15 9
15 5 0 7 4 4 9 -3 5 -8 26 -12 47 -3 22 -9 41 -14 44 -6 4 -30 67 -36 95 -1 6
-8 24 -15 40 -7 17 -13 35 -14 40 0 6 -7 20 -13 33 -7 12 -11 26 -8 31 3 5 -1
14 -9 21 -8 7 -15 20 -15 29 0 9 -4 21 -9 27 -5 5 -11 18 -13 29 -1 11 -7 23
-12 27 -8 5 -10 15 -15 61 -1 5 -6 5 -13 1 -7 -4 -8 -3 -4 5 4 6 0 23 -9 37
-14 22 -13 44 2 44 4 0 4 -3 0 -6z m-1170 -27 c7 -5 36 -7 64 -6 55 3 84 -17
72 -49 -5 -11 -3 -13 6 -7 10 6 11 3 3 -11 -9 -17 -24 -19 -170 -19 -119 1
-164 4 -176 14 -12 10 -13 17 -6 26 6 7 9 18 8 25 -4 16 48 32 87 26 17 -3 39
-1 50 4 23 9 44 8 62 -3z m-1307 -182 c-5 -13 -6 -26 -3 -29 4 -3 2 -6 -4 -6
-8 0 -33 -60 -38 -90 0 -3 -3 -9 -6 -15 -4 -5 -14 -35 -24 -65 -10 -30 -29
-82 -42 -114 -16 -38 -23 -70 -19 -88 5 -26 3 -28 -26 -28 l-31 0 7 57 c4 31
20 83 36 115 17 32 30 65 30 73 0 8 3 15 8 15 4 0 20 34 36 75 16 41 33 75 37
75 5 0 9 9 9 19 0 11 5 23 10 26 6 4 7 12 3 18 -4 7 0 7 10 -1 12 -10 14 -20
7 -37z m810 -114 c0 -15 -82 -79 -131 -100 -24 -11 -62 -21 -84 -21 -83 0
-245 53 -245 81 0 22 45 26 88 8 32 -14 68 -19 136 -19 84 0 98 3 147 29 55
30 89 39 89 22z m1015 -21 c51 -27 67 -30 146 -30 61 0 103 6 136 18 51 20 83
19 83 -3 0 -19 -21 -33 -86 -55 -80 -28 -162 -36 -210 -20 -59 19 -154 88
-154 111 0 16 27 10 85 -21z m-996 -36 c4 3 8 0 9 -7 0 -7 3 -31 6 -54 l5 -43
-42 -1 c-45 0 -127 -6 -190 -13 -21 -2 -47 -12 -57 -21 -11 -10 -24 -14 -32
-9 -11 6 -11 5 0 -8 10 -12 10 -17 0 -26 -15 -12 -204 -20 -214 -9 -4 4 -3 7
3 7 7 0 11 29 12 77 0 43 5 79 11 81 6 2 7 9 4 14 -4 7 -2 8 5 4 6 -4 9 -11 6
-16 -7 -12 75 -48 128 -55 12 -1 42 -8 67 -14 56 -13 69 -13 50 -1 -11 8 -8 9
12 4 15 -3 33 -2 40 2 7 5 19 9 26 10 20 3 93 54 117 80 15 18 21 20 23 8 2
-8 7 -12 11 -10z m969 -39 c3 3 11 0 18 -6 40 -33 84 -46 150 -43 102 5 152
16 202 46 18 11 35 18 37 16 2 -2 5 -35 6 -73 1 -39 7 -73 13 -77 8 -5 7 -8
-2 -8 -7 0 -10 -5 -7 -10 4 -6 11 -7 17 -4 7 4 8 2 4 -5 -6 -9 -11 -9 -21 -1
-8 7 -49 10 -101 9 -64 -1 -89 2 -92 11 -8 23 -43 52 -70 56 -14 3 -29 7 -33
10 -5 3 -50 7 -101 10 -51 3 -99 7 -105 9 -16 5 -16 37 -3 87 l11 37 36 -34
c20 -19 39 -32 41 -30z m-2072 -59 c3 -7 -5 -35 -18 -62 -21 -44 -26 -49 -53
-46 -53 6 -95 83 -60 109 25 18 124 17 131 -1z m3225 4 c25 -14 24 -31 -3 -73
-22 -33 -65 -52 -86 -38 -15 12 -44 90 -39 105 7 19 96 22 128 6z m-3396 -9
c3 -5 2 -12 -3 -15 -5 -3 -9 1 -9 9 0 17 3 19 12 6z m2000 -21 c297 -12 401
-24 427 -46 22 -21 24 -60 2 -68 -9 -3 -330 -6 -714 -6 -743 1 -746 1 -722 47
6 11 17 25 25 32 21 17 153 31 382 40 293 12 326 12 600 1z m1438 -32 c-7 -13
-8 -17 -11 -49 -1 -9 -9 -16 -17 -16 -20 0 -19 14 2 26 10 5 15 13 11 17 -5 4
-3 13 3 21 14 16 23 17 12 1z m-3416 -32 c17 -19 18 -26 8 -30 -8 -3 -17 6
-24 25 -12 35 -11 36 16 5z m950 -51 c19 -13 114 -15 744 -15 654 0 724 1 747
16 22 14 43 16 146 10 244 -14 477 -48 593 -87 77 -25 117 -67 132 -139 15
-69 14 -203 -1 -218 -18 -18 -48 -16 -353 28 -283 39 -481 63 -633 76 l-83 7
66 67 c36 38 65 74 65 81 0 6 -10 -3 -22 -21 -13 -19 -45 -49 -71 -68 l-48
-35 -47 22 c-106 48 -167 55 -477 56 -315 0 -388 -8 -487 -52 l-57 -25 -35 21
c-19 12 -50 39 -70 61 -20 22 -36 35 -36 28 0 -7 28 -40 63 -74 l63 -62 -85
-6 c-142 -12 -320 -33 -637 -77 -165 -23 -312 -39 -326 -36 -21 6 -27 14 -32
49 -8 59 8 187 29 232 31 65 95 92 295 127 133 22 364 46 465 48 49 1 77 -4
92 -14z m-863 -41 c-7 -27 -7 -27 42 -21 27 3 63 9 79 12 17 4 4 -5 -28 -18
-79 -34 -84 -40 -109 -120 -19 -64 -20 -85 -15 -234 5 -121 10 -171 23 -194
l16 -32 71 7 c552 52 779 61 1527 61 704 0 887 -6 1354 -46 293 -25 270 -36
287 136 18 199 -4 341 -62 389 -16 14 -49 31 -72 37 -54 16 -72 31 -21 18 22
-6 59 -13 83 -16 43 -6 44 -5 39 21 -3 17 -1 26 7 26 16 0 25 -23 25 -66 0
-33 7 -39 38 -35 22 3 213 -95 322 -167 128 -83 213 -162 208 -194 -3 -19 -13
-24 -71 -34 -116 -22 -195 -83 -244 -191 -14 -29 -25 -53 -26 -53 -1 0 1 46 4
102 4 76 13 122 32 174 31 83 33 104 11 145 -16 33 -126 109 -156 109 -26 0
-23 -21 21 -150 54 -156 65 -280 66 -685 0 -311 1 -321 23 -366 14 -30 35 -53
60 -67 54 -30 167 -45 304 -40 106 4 118 2 118 -13 0 -9 -6 -21 -13 -27 -13
-11 -309 -28 -962 -57 -187 -8 -384 -17 -438 -19 -84 -4 -101 -2 -115 12 -16
16 -73 18 -826 17 -759 0 -808 -1 -817 -18 -9 -15 -21 -16 -82 -12 -40 2 -144
7 -232 10 -259 10 -851 38 -1083 51 -101 6 -138 20 -130 46 2 6 70 11 168 12
190 3 252 17 294 67 49 58 55 116 48 504 -5 265 17 453 68 597 46 128 47 138
20 138 -27 0 -121 -60 -149 -95 -34 -44 -34 -64 0 -155 26 -69 32 -104 35
-185 l4 -100 -24 52 c-33 70 -69 115 -115 146 -42 28 -130 57 -172 57 -87 0 0
109 183 228 102 66 271 152 308 157 36 4 52 13 45 26 -10 16 7 79 21 79 11 0
13 -7 8 -26z m-183 -332 c-23 -65 -41 -132 -41 -150 0 -59 -18 -42 -44 42 -32
105 -32 117 1 157 33 39 116 94 121 80 2 -6 -15 -64 -37 -129z m3609 101 c30
-21 63 -53 73 -71 l19 -33 -27 -87 c-32 -100 -45 -121 -45 -72 -1 19 -19 87
-41 150 -53 152 -53 150 -42 150 5 0 34 -17 63 -37z m-1654 16 c158 -15 294
-51 294 -78 0 -15 -72 -44 -180 -73 -58 -15 -91 -27 -75 -28 37 0 176 33 241
58 48 18 53 18 274 -5 424 -43 613 -72 766 -118 99 -30 133 -54 127 -89 -8
-42 -23 -47 -104 -36 -109 14 -414 38 -574 45 -77 4 -153 8 -170 10 -89 12
-1007 16 -1315 6 -414 -14 -846 -42 -995 -66 -39 -6 -53 4 -61 43 -6 31 -5 33
49 57 122 56 384 102 842 148 199 20 234 22 263 10 58 -24 216 -63 252 -62 25
0 13 6 -45 19 -98 22 -189 56 -205 75 -10 13 -6 18 24 30 126 53 374 76 592
54z m-2396 -184 c-8 -10 -9 -15 -1 -15 7 0 8 -8 0 -26 -5 -15 -7 -29 -4 -32 3
-3 5 0 5 7 0 9 4 8 15 -3 21 -21 19 -31 -7 -32 -13 0 -44 -3 -70 -7 -27 -3
-48 -2 -48 3 0 12 29 40 41 40 6 0 7 5 4 10 -3 6 -2 10 4 10 5 0 22 14 38 30
29 31 45 41 23 15z m4518 -35 c6 0 9 -7 5 -15 -3 -9 -2 -15 3 -13 11 3 52 -31
65 -55 10 -17 9 -17 -20 -2 -17 8 -55 16 -86 18 -30 1 -50 4 -45 5 6 2 8 8 4
13 -3 5 -1 9 5 9 16 0 22 36 11 66 l-11 29 28 -27 c16 -16 34 -28 41 -28z
m-3853 -4 c7 3 16 0 20 -6 3 -6 3 -9 -2 -8 -4 1 -18 -3 -30 -10 -13 -7 -24
-10 -24 -7 -8 33 -1 51 13 37 6 -6 16 -8 23 -6z m3152 2 c26 4 41 -16 18 -24
-19 -8 -65 11 -65 26 0 7 5 8 13 3 6 -4 22 -6 34 -5z m513 -78 c-8 -5 -19 -10
-25 -10 -5 0 -3 5 5 10 8 5 20 10 25 10 6 0 3 -5 -5 -10z m-4060 -80 c26 -26
42 -54 60 -102 5 -16 14 -28 19 -28 5 0 9 -39 9 -87 0 -49 2 -160 5 -248 2
-88 1 -168 -2 -179 -7 -17 -9 -16 -24 8 -10 14 -21 25 -25 25 -4 -1 -20 -1
-37 0 l-30 1 28 19 c16 10 28 22 27 26 -1 4 6 17 16 29 25 30 27 40 25 121 -2
39 -3 98 -4 133 0 34 -5 62 -10 62 -6 0 -8 3 -4 6 7 8 -32 84 -44 84 -5 0 -9
6 -9 13 0 7 -14 21 -30 30 -23 14 -28 22 -22 35 12 24 1 67 -25 96 -13 15 -23
29 -23 32 0 7 70 -46 100 -76z m-122 41 c23 -12 42 -27 42 -34 0 -6 3 -22 6
-34 6 -22 4 -23 -62 -23 -93 0 -116 -16 -31 -22 76 -5 132 -36 172 -96 22 -34
27 -55 35 -172 11 -152 4 -179 -59 -230 -41 -35 -74 -47 -156 -59 -52 -7 -40
-9 83 -10 l142 -1 0 -68 c0 -56 -4 -72 -20 -87 -30 -27 -123 -45 -265 -51
-146 -6 -166 0 -198 54 -25 43 -73 231 -88 346 -20 156 5 351 54 423 23 34 87
71 147 84 58 13 152 4 198 -20z m4441 -8 c98 -49 120 -106 128 -333 5 -135 3
-154 -26 -282 -37 -167 -54 -211 -95 -244 l-31 -27 -135 6 c-144 7 -242 25
-268 50 -11 11 -16 37 -16 84 l-1 68 135 5 c74 3 121 7 104 8 -60 4 -136 33
-173 68 -60 54 -65 75 -55 229 9 122 12 136 38 174 35 50 112 91 173 91 24 0
43 5 43 10 0 6 -30 10 -70 10 l-70 0 0 33 c0 34 25 55 95 77 53 17 162 4 224
-27z m-326 7 c-3 -11 -9 -20 -13 -20 -9 0 -6 -62 4 -78 4 -7 3 -12 -2 -12 -5
0 -22 -13 -38 -30 -16 -16 -35 -30 -43 -30 -8 0 -12 -3 -8 -6 3 -4 0 -19 -8
-34 -19 -36 -28 -115 -27 -230 1 -123 3 -139 22 -145 8 -3 20 -15 25 -27 6
-13 17 -22 24 -20 7 1 10 -2 6 -8 -3 -6 -10 -8 -14 -6 -16 10 -71 -34 -77 -61
-3 -15 -7 -32 -9 -38 -2 -5 -2 120 0 279 4 273 5 291 24 317 12 16 21 33 21
38 0 5 11 23 25 39 13 16 22 32 18 36 -3 3 -2 6 4 6 5 0 22 11 37 25 33 30 36
31 29 5z m-3898 -740 c3 -5 1 -10 -4 -10 -6 0 -11 5 -11 10 0 6 2 10 4 10 3 0
8 -4 11 -10z m-478 -267 c5 3 17 -1 28 -9 16 -12 17 -14 2 -14 -9 0 -17 5 -17
12 0 9 -3 9 -12 0 -15 -15 -39 -15 -75 0 -15 6 -33 10 -39 10 -6 -1 -11 5 -11
13 0 8 2 13 5 10 3 -2 14 1 26 7 11 7 27 13 34 14 8 1 16 5 20 8 3 4 12 -8 19
-25 7 -17 16 -28 20 -26z m4781 30 c8 -7 18 -10 24 -7 6 4 8 -1 6 -12 -2 -13
-13 -19 -38 -21 -19 -1 -51 -4 -70 -6 -29 -4 -32 -3 -17 8 9 6 14 15 10 18 -3
4 -1 7 5 7 7 0 12 6 12 14 0 27 40 27 68 -1z m-4698 -47 c0 -2 -7 -7 -16 -10
-8 -3 -12 -2 -9 4 6 10 25 14 25 6z m4503 -3 c-7 -2 -21 -2 -30 0 -10 3 -4 5
12 5 17 0 24 -2 18 -5z m-4395 -33 c152 -5 331 -14 397 -20 66 -5 179 -12 250
-15 218 -9 528 -26 565 -30 19 -2 52 -4 73 -5 32 0 37 -3 37 -24 0 -21 -6 -24
-54 -30 -29 -4 -69 -16 -89 -26 -23 -12 -49 -18 -74 -15 -21 2 -112 6 -203 10
-91 3 -217 8 -280 10 -63 3 -221 10 -350 15 -498 21 -562 27 -603 54 -41 28
-45 50 -12 81 22 19 31 22 46 14 11 -5 144 -14 297 -19z m4670 -40 c-7 -60
-53 -66 -758 -95 -212 -9 -468 -20 -569 -24 -165 -7 -187 -6 -218 10 -19 10
-59 21 -89 25 -48 6 -54 9 -54 30 0 18 6 24 23 24 12 0 128 7 257 15 129 7
314 17 410 20 96 4 182 9 190 12 8 2 173 11 365 18 193 8 361 18 375 23 33 13
72 -20 68 -58z m-3885 33 c-7 -2 -21 -2 -30 0 -10 3 -4 5 12 5 17 0 24 -2 18
-5z m2165 -6 c20 -13 6 -307 -16 -325 -12 -9 -184 -12 -783 -12 -684 0 -769 2
-783 16 -13 13 -16 43 -16 169 0 96 4 155 10 157 23 7 1576 2 1588 -5z m522 3
c0 -5 -5 -10 -11 -10 -5 0 -7 5 -4 10 3 6 8 10 11 10 2 0 4 -4 4 -10z m-2633
-6 c-3 -3 -12 -4 -19 -1 -8 3 -5 6 6 6 11 1 17 -2 13 -5z m2369 -7 c4 -4 -13
-7 -37 -6 -36 1 -39 2 -19 8 29 9 46 8 56 -2z m141 7 c-7 -8 -103 -12 -114 -6
-7 4 18 8 54 9 35 1 63 -1 60 -3z m-2177 -17 c0 -4 -17 -5 -37 -1 -53 9 -55
15 -5 12 23 -2 42 -7 42 -11z m70 1 c0 -11 -32 -10 -48 1 -9 5 -3 8 17 7 17
-1 31 -4 31 -8z m70 2 c21 -7 19 -8 -12 -6 -21 1 -41 6 -45 9 -9 9 26 7 57 -3z
m1730 -1 c0 -10 -50 -18 -55 -9 -2 4 -3 9 -1 11 7 7 56 4 56 -2z m74 3 c3 -5
-8 -9 -24 -9 -17 0 -30 4 -30 9 0 4 11 8 24 8 14 0 27 -4 30 -8z m-3411 -96
c9 0 17 -3 17 -7 0 -4 19 -6 43 -6 23 0 87 -3 142 -6 169 -12 691 -36 865 -40
91 -2 174 -7 185 -11 17 -7 17 -6 5 4 -12 9 -11 10 7 5 11 -3 62 -8 112 -10
77 -3 93 -1 103 13 7 9 22 18 33 19 81 10 105 11 106 5 0 -4 1 -32 2 -62 l2
-56 -30 3 c-16 1 -97 5 -180 8 -164 6 -263 11 -370 20 -38 3 -126 7 -195 10
-245 9 -576 25 -632 31 -53 5 -57 4 -74 -22 -14 -20 -18 -46 -17 -103 1 -91 9
-178 23 -246 6 -27 12 -59 14 -70 2 -11 8 -32 14 -46 8 -20 7 -26 -3 -26 -28
0 -67 149 -80 302 -3 33 -8 89 -11 125 -4 36 -7 71 -7 77 0 7 -16 18 -35 24
-19 6 -51 27 -71 46 -32 32 -33 34 -11 27 14 -4 33 -8 43 -8z m4931 -15 c-10
-17 -21 -28 -25 -26 -4 3 -12 -2 -19 -10 -7 -8 -16 -13 -20 -10 -5 3 -18 -9
-30 -25 -17 -24 -22 -47 -23 -105 -3 -119 -20 -72 -26 72 -2 41 -28 45 -224
34 -100 -6 -209 -11 -242 -12 -33 -1 -66 -7 -74 -13 -12 -9 -13 -8 -7 2 7 11
4 12 -10 5 -11 -5 -41 -9 -67 -8 -26 1 -50 -2 -53 -6 -2 -5 -15 -4 -28 1 -13
5 -26 7 -27 5 -4 -3 -160 -12 -334 -19 -52 -3 -338 -16 -385 -18 -52 -3 -56 1
-55 50 1 26 3 52 4 58 1 7 17 8 49 4 26 -5 51 -5 56 -2 5 3 6 0 2 -6 -5 -8 2
-12 18 -12 14 0 26 -4 26 -9 0 -5 41 -7 93 -5 50 3 144 6 207 8 63 2 160 7
215 10 55 3 190 8 300 11 110 3 234 7 275 10 132 10 233 16 300 19 36 2 76 8
90 14 14 6 26 11 28 11 2 1 -5 -12 -14 -28z m-4405 -113 l263 -12 -6 -81 c-19
-228 -51 -358 -99 -404 -50 -46 -93 -55 -250 -55 -132 1 -151 3 -175 21 -59
43 -102 228 -102 437 l0 119 53 -6 c28 -3 171 -12 316 -19z m4239 -150 c-5
-187 -19 -248 -73 -330 -44 -66 -58 -71 -223 -72 -121 -1 -154 2 -187 17 -98
44 -130 113 -155 337 -5 52 -12 116 -15 143 l-6 47 88 1 c48 0 178 6 288 13
110 7 220 14 244 15 l44 1 -5 -172z m-4571 -345 c3 -10 20 -33 36 -50 38 -40
30 -43 -10 -5 -35 32 -59 72 -43 72 6 0 13 -8 17 -17z m4510 -28 c0 -8 -4 -12
-9 -9 -5 3 -6 10 -3 15 9 13 12 11 12 -6z m-4016 -18 c-10 -9 -11 -8 -5 6 3
10 9 15 12 12 3 -3 0 -11 -7 -18z m3550 -4 c13 -17 13 -17 -6 -3 -11 8 -22 16
-24 17 -2 2 0 3 6 3 6 0 17 -8 24 -17z m444 -12 c-3 -6 -10 -9 -15 -6 -5 3
-11 1 -15 -5 -3 -5 -14 -10 -23 -9 -12 0 -9 4 8 11 14 6 28 10 33 10 4 -1 7 3
7 10 0 6 3 9 6 5 3 -3 3 -11 -1 -16z m-4027 -8 c-10 -2 -18 -9 -18 -14 0 -6
-5 -7 -10 -4 -16 10 -1 25 23 24 17 -1 18 -2 5 -6z m-373 -13 c3 -5 1 -10 -4
-10 -6 0 -11 5 -11 10 0 6 2 10 4 10 3 0 8 -4 11 -10z m320 0 c-3 -5 -18 -9
-33 -9 l-27 1 30 8 c17 4 31 8 33 9 2 0 0 -3 -3 -9z m3700 -8 c-3 -3 -11 0
-18 7 -9 10 -8 11 6 5 10 -3 15 -9 12 -12z m-3968 2 c-3 -3 -12 -4 -19 -1 -8
3 -5 6 6 6 11 1 17 -2 13 -5z m200 0 c-3 -3 -12 -4 -19 -1 -8 3 -5 6 6 6 11 1
17 -2 13 -5z m3838 -4 c-27 -12 -43 -12 -25 0 8 5 22 9 30 9 10 0 8 -3 -5 -9z
m112 -6 c-3 -3 -12 -4 -19 -1 -8 3 -5 6 6 6 11 1 17 -2 13 -5z"/>
<path d="M2649 3158 c-6 -20 -6 -39 0 -42 4 -3 7 6 7 20 0 20 -4 32 -7 22z"/>
<path d="M4874 2314 c-18 -14 -18 -15 4 -4 12 6 22 13 22 15 0 8 -5 6 -26 -11z"/>
<path d="M2630 1963 c-584 -25 -1256 -100 -1377 -153 -61 -27 -86 -70 -80
-140 7 -85 56 -269 88 -332 47 -94 42 -92 434 -128 598 -54 1129 -85 1345 -76
435 17 1360 92 1436 117 63 20 101 86 143 251 43 165 46 199 26 242 -28 59
-68 76 -256 107 -505 84 -1280 133 -1759 112z m660 -33 c0 -3 30 -7 68 -8 111
-3 207 -10 259 -16 26 -3 91 -9 143 -12 109 -6 131 -8 295 -29 66 -8 126 -13
133 -10 6 2 12 0 12 -5 0 -6 15 -10 33 -10 39 0 106 -8 207 -24 61 -10 78 -14
99 -26 12 -6 21 -8 21 -4 0 4 11 -3 25 -16 14 -13 25 -31 25 -39 0 -14 -1 -14
-10 -1 -5 8 -10 11 -10 6 0 -5 -6 -4 -12 1 -18 14 -54 22 -139 29 -41 3 -90 8
-109 10 -19 2 -60 6 -90 9 -30 3 -75 7 -100 9 -113 11 -445 35 -535 40 -469
24 -613 26 -657 12 -24 -9 -42 -10 -53 -3 -40 22 -535 7 -965 -28 -102 -9
-215 -18 -253 -20 -37 -2 -71 -6 -75 -9 -4 -2 -39 -7 -77 -10 -39 -3 -102 -8
-141 -11 -85 -7 -130 -19 -154 -40 -32 -29 -31 2 0 35 17 18 30 26 30 19 1 -9
4 -8 11 4 6 9 14 15 19 12 5 -3 24 1 41 10 20 11 28 12 24 4 -6 -8 -4 -10 4
-4 7 4 25 8 39 10 15 1 72 10 127 19 55 10 118 19 140 21 22 2 74 8 115 14 41
5 113 13 160 16 47 3 139 11 205 17 141 12 146 13 380 23 99 4 182 10 185 12
7 7 580 -1 580 -7z m-391 -104 c-2 -2 -31 -9 -63 -15 -62 -11 -133 -50 -178
-98 -34 -36 -67 -109 -68 -149 l0 -31 -632 -7 c-348 -4 -635 -9 -637 -12 -20
-20 52 -26 405 -34 860 -21 855 -21 860 -39 14 -49 61 -125 98 -159 116 -107
325 -111 450 -9 40 34 106 138 106 170 0 16 -4 16 850 36 365 9 420 13 420 30
0 8 -619 21 -1016 21 l-251 0 -7 42 c-20 123 -130 223 -268 243 -41 6 -48 5
-48 -9 0 -10 -5 -14 -10 -11 -8 5 -7 11 1 21 10 13 41 14 193 9 568 -19 1369
-80 1454 -111 65 -24 67 -35 31 -181 -35 -141 -67 -215 -102 -238 -41 -27
-363 -61 -942 -100 -538 -36 -628 -38 -927 -21 -545 32 -1031 71 -1193 97 -82
13 -113 37 -143 108 -27 64 -77 274 -69 294 11 28 51 46 127 57 225 30 1015
85 1340 93 58 2 132 4 164 5 33 1 57 0 55 -2z m1 -53 c0 -5 -9 -61 -19 -125
-20 -132 -6 -111 -150 -220 l-76 -57 -17 42 c-42 103 4 252 96 317 45 32 166
63 166 43z m121 -10 c72 -23 140 -90 164 -162 22 -66 22 -144 2 -194 l-16 -37
-104 80 -104 80 -17 112 c-10 62 -21 118 -23 125 -7 18 34 16 98 -4z m-50
-272 c39 -38 56 -69 19 -36 -10 9 -26 15 -35 11 -9 -3 -13 -2 -10 4 3 6 -17 8
-52 5 -32 -2 -52 -1 -45 1 6 3 12 12 12 20 0 9 4 13 9 10 5 -4 18 26 28 66
l18 71 9 -57 c7 -47 15 -63 47 -95z m-458 2 c-7 -2 -19 -2 -25 0 -7 3 -2 5 12
5 14 0 19 -2 13 -5z m508 -79 c52 -20 105 -40 118 -46 l24 -9 -34 -35 c-87
-90 -239 -117 -344 -62 -27 14 -65 42 -84 62 l-34 35 24 10 c13 5 65 25 114
45 50 19 97 35 106 36 10 0 59 -16 110 -36z"/>
<path d="M4210 3366 c0 -2 8 -10 18 -17 15 -13 16 -12 3 4 -13 16 -21 21 -21
13z"/>
</g>
</svg>
